%TF.GenerationSoftware,KiCad,Pcbnew,8.0.8*%
%TF.CreationDate,2025-03-28T16:36:24+05:30*%
%TF.ProjectId,MainBoard_v1.2.0,4d61696e-426f-4617-9264-5f76312e322e,rev?*%
%TF.SameCoordinates,Original*%
%TF.FileFunction,Soldermask,Top*%
%TF.FilePolarity,Negative*%
%FSLAX46Y46*%
G04 Gerber Fmt 4.6, Leading zero omitted, Abs format (unit mm)*
G04 Created by KiCad (PCBNEW 8.0.8) date 2025-03-28 16:36:24*
%MOMM*%
%LPD*%
G01*
G04 APERTURE LIST*
G04 Aperture macros list*
%AMRoundRect*
0 Rectangle with rounded corners*
0 $1 Rounding radius*
0 $2 $3 $4 $5 $6 $7 $8 $9 X,Y pos of 4 corners*
0 Add a 4 corners polygon primitive as box body*
4,1,4,$2,$3,$4,$5,$6,$7,$8,$9,$2,$3,0*
0 Add four circle primitives for the rounded corners*
1,1,$1+$1,$2,$3*
1,1,$1+$1,$4,$5*
1,1,$1+$1,$6,$7*
1,1,$1+$1,$8,$9*
0 Add four rect primitives between the rounded corners*
20,1,$1+$1,$2,$3,$4,$5,0*
20,1,$1+$1,$4,$5,$6,$7,0*
20,1,$1+$1,$6,$7,$8,$9,0*
20,1,$1+$1,$8,$9,$2,$3,0*%
G04 Aperture macros list end*
%ADD10C,3.200000*%
%ADD11R,2.600000X2.600000*%
%ADD12C,2.600000*%
%ADD13RoundRect,0.250000X-0.600000X-0.725000X0.600000X-0.725000X0.600000X0.725000X-0.600000X0.725000X0*%
%ADD14O,1.700000X1.950000*%
%ADD15RoundRect,0.250000X-0.450000X0.325000X-0.450000X-0.325000X0.450000X-0.325000X0.450000X0.325000X0*%
%ADD16RoundRect,0.250000X0.450000X-0.350000X0.450000X0.350000X-0.450000X0.350000X-0.450000X-0.350000X0*%
%ADD17RoundRect,0.250000X0.450000X-0.325000X0.450000X0.325000X-0.450000X0.325000X-0.450000X-0.325000X0*%
%ADD18RoundRect,0.250000X0.725000X-0.600000X0.725000X0.600000X-0.725000X0.600000X-0.725000X-0.600000X0*%
%ADD19O,1.950000X1.700000*%
%ADD20RoundRect,0.250000X-0.450000X0.350000X-0.450000X-0.350000X0.450000X-0.350000X0.450000X0.350000X0*%
%ADD21RoundRect,0.250000X-0.350000X-0.450000X0.350000X-0.450000X0.350000X0.450000X-0.350000X0.450000X0*%
%ADD22RoundRect,0.250000X0.412500X1.100000X-0.412500X1.100000X-0.412500X-1.100000X0.412500X-1.100000X0*%
%ADD23RoundRect,0.102000X0.754000X-0.754000X0.754000X0.754000X-0.754000X0.754000X-0.754000X-0.754000X0*%
%ADD24RoundRect,0.250000X0.350000X0.450000X-0.350000X0.450000X-0.350000X-0.450000X0.350000X-0.450000X0*%
%ADD25RoundRect,0.250000X0.600000X0.675000X-0.600000X0.675000X-0.600000X-0.675000X0.600000X-0.675000X0*%
%ADD26O,1.700000X1.850000*%
%ADD27R,2.000000X2.000000*%
%ADD28C,2.000000*%
%ADD29RoundRect,0.250000X-0.725000X0.600000X-0.725000X-0.600000X0.725000X-0.600000X0.725000X0.600000X0*%
%ADD30RoundRect,0.250000X-0.325000X-0.450000X0.325000X-0.450000X0.325000X0.450000X-0.325000X0.450000X0*%
%ADD31O,3.800000X5.500000*%
%ADD32O,3.800000X5.300000*%
%ADD33R,1.500000X1.500000*%
%ADD34C,1.600000*%
%ADD35RoundRect,0.250000X0.325000X0.450000X-0.325000X0.450000X-0.325000X-0.450000X0.325000X-0.450000X0*%
%ADD36RoundRect,0.250000X0.750000X-0.600000X0.750000X0.600000X-0.750000X0.600000X-0.750000X-0.600000X0*%
%ADD37O,2.000000X1.700000*%
%ADD38O,1.700000X1.700000*%
%ADD39R,1.700000X1.700000*%
%TA.AperFunction,Profile*%
%ADD40C,0.050000*%
%TD*%
G04 APERTURE END LIST*
D10*
%TO.C,REF\u002A\u002A*%
X68820000Y-117850000D03*
%TD*%
%TO.C,REF\u002A\u002A*%
X119370000Y-122010000D03*
%TD*%
D11*
%TO.C,J15*%
X139305000Y-93725000D03*
D12*
X134225000Y-93725000D03*
%TD*%
D13*
%TO.C,J6*%
X95830000Y-93555000D03*
D14*
X98330000Y-93555000D03*
X100830000Y-93555000D03*
%TD*%
D15*
%TO.C,D12*%
X88280000Y-139907500D03*
X88280000Y-141957500D03*
%TD*%
D16*
%TO.C,R14*%
X88120000Y-147000000D03*
X88120000Y-145000000D03*
%TD*%
D13*
%TO.C,J5*%
X79260000Y-159435000D03*
D14*
X81760000Y-159435000D03*
X84260000Y-159435000D03*
X86760000Y-159435000D03*
%TD*%
D17*
%TO.C,D6*%
X89262331Y-110681165D03*
X89262331Y-108631165D03*
%TD*%
D18*
%TO.C,J1*%
X144930000Y-148640000D03*
D19*
X144930000Y-146140000D03*
X144930000Y-143640000D03*
X144930000Y-141140000D03*
%TD*%
D20*
%TO.C,R25*%
X68000000Y-132800000D03*
X68000000Y-134800000D03*
%TD*%
D17*
%TO.C,D5*%
X85948052Y-110660491D03*
X85948052Y-108610491D03*
%TD*%
D20*
%TO.C,R7*%
X82598231Y-103165115D03*
X82598231Y-105165115D03*
%TD*%
D11*
%TO.C,BATTERY_CONN2*%
X57125000Y-98505000D03*
D12*
X57125000Y-103585000D03*
%TD*%
D21*
%TO.C,R2*%
X93000000Y-127000000D03*
X95000000Y-127000000D03*
%TD*%
D16*
%TO.C,R12*%
X84640000Y-146880000D03*
X84640000Y-144880000D03*
%TD*%
D11*
%TO.C,J9*%
X142215000Y-159075000D03*
D12*
X147295000Y-159075000D03*
%TD*%
D11*
%TO.C,BATTERY_CONN4*%
X72925000Y-94395000D03*
D12*
X67845000Y-94395000D03*
%TD*%
D15*
%TO.C,D13*%
X91510000Y-139957500D03*
X91510000Y-142007500D03*
%TD*%
D22*
%TO.C,C1*%
X134252500Y-102640000D03*
X131127500Y-102640000D03*
%TD*%
D21*
%TO.C,R23*%
X63745888Y-130337760D03*
X65745888Y-130337760D03*
%TD*%
D17*
%TO.C,D7*%
X92528150Y-110646742D03*
X92528150Y-108596742D03*
%TD*%
D16*
%TO.C,R33*%
X137290000Y-107610000D03*
X137290000Y-105610000D03*
%TD*%
D20*
%TO.C,R10*%
X92690062Y-103063223D03*
X92690062Y-105063223D03*
%TD*%
D16*
%TO.C,R15*%
X91350000Y-146980000D03*
X91350000Y-144980000D03*
%TD*%
D23*
%TO.C,U1*%
X89300000Y-115610000D03*
X86760000Y-115610000D03*
X91840000Y-115610000D03*
X96920000Y-115610000D03*
X84220000Y-115610000D03*
X109620000Y-115610000D03*
X122320000Y-115610000D03*
X84220000Y-133390000D03*
X96920000Y-133390000D03*
X109620000Y-133390000D03*
X122320000Y-133390000D03*
X79140000Y-133390000D03*
X81680000Y-133390000D03*
X86760000Y-133390000D03*
X89300000Y-133390000D03*
X91840000Y-133390000D03*
X94380000Y-133390000D03*
X99460000Y-133390000D03*
X102000000Y-133390000D03*
X104540000Y-133390000D03*
X107080000Y-133390000D03*
X112160000Y-133390000D03*
X114700000Y-133390000D03*
X117240000Y-133390000D03*
X119780000Y-133390000D03*
X124860000Y-133390000D03*
X127400000Y-133390000D03*
X127400000Y-115610000D03*
X124860000Y-115610000D03*
X119780000Y-115610000D03*
X117240000Y-115610000D03*
X114700000Y-115610000D03*
X112160000Y-115610000D03*
X107080000Y-115610000D03*
X102000000Y-115610000D03*
X99460000Y-115610000D03*
X94380000Y-115610000D03*
X104540000Y-115610000D03*
X79140000Y-115610000D03*
X81680000Y-115610000D03*
%TD*%
D21*
%TO.C,R5*%
X55270000Y-147465000D03*
X57270000Y-147465000D03*
%TD*%
D24*
%TO.C,R29*%
X71500000Y-109500000D03*
X69500000Y-109500000D03*
%TD*%
D13*
%TO.C,J11*%
X80850000Y-92505000D03*
D14*
X83350000Y-92505000D03*
X85850000Y-92505000D03*
X88350000Y-92505000D03*
%TD*%
D25*
%TO.C,Q1*%
X70500000Y-156000000D03*
D26*
X73000000Y-156000000D03*
X68000000Y-156000000D03*
%TD*%
D27*
%TO.C,JP1*%
X143890000Y-125480000D03*
D28*
X143890000Y-117880000D03*
%TD*%
D24*
%TO.C,R31*%
X139327888Y-110676019D03*
X137327888Y-110676019D03*
%TD*%
%TO.C,R19*%
X79506490Y-145031314D03*
X77506490Y-145031314D03*
%TD*%
%TO.C,R13*%
X139487500Y-101910000D03*
X137487500Y-101910000D03*
%TD*%
D29*
%TO.C,J12*%
X146500000Y-103000000D03*
D19*
X146500000Y-105500000D03*
X146500000Y-108000000D03*
X146500000Y-110500000D03*
%TD*%
D30*
%TO.C,D2*%
X55255000Y-144045000D03*
X57305000Y-144045000D03*
%TD*%
D16*
%TO.C,R1*%
X74820000Y-152080000D03*
X74820000Y-150080000D03*
%TD*%
D31*
%TO.C,F1*%
X70500000Y-148950000D03*
D32*
X70500000Y-140950000D03*
%TD*%
D13*
%TO.C,J4*%
X92890000Y-159465000D03*
D14*
X95390000Y-159465000D03*
X97890000Y-159465000D03*
%TD*%
D29*
%TO.C,J10*%
X58025000Y-130250000D03*
D19*
X58025000Y-132750000D03*
X58025000Y-135250000D03*
X58025000Y-137750000D03*
%TD*%
D20*
%TO.C,R9*%
X89390869Y-103101053D03*
X89390869Y-105101053D03*
%TD*%
D13*
%TO.C,J7*%
X108000000Y-93530000D03*
D14*
X110500000Y-93530000D03*
X113000000Y-93530000D03*
%TD*%
D20*
%TO.C,R27*%
X72000000Y-104500000D03*
X72000000Y-106500000D03*
%TD*%
D33*
%TO.C,SW2*%
X70540000Y-162000000D03*
D34*
X68000000Y-162000000D03*
X73080000Y-162000000D03*
%TD*%
D28*
%TO.C,SW1*%
X120670000Y-102820000D03*
X127170000Y-102820000D03*
X120670000Y-107320000D03*
X127170000Y-107320000D03*
%TD*%
D11*
%TO.C,BATTERY_CONN3*%
X57275000Y-110245000D03*
D12*
X57275000Y-115325000D03*
%TD*%
D35*
%TO.C,D3*%
X63325000Y-147445000D03*
X61275000Y-147445000D03*
%TD*%
D11*
%TO.C,BATTERY_CONN1*%
X58000000Y-153000000D03*
D12*
X58000000Y-158080000D03*
%TD*%
D11*
%TO.C,J8*%
X126240000Y-93760000D03*
D12*
X121160000Y-93760000D03*
%TD*%
D17*
%TO.C,D4*%
X82421234Y-110680219D03*
X82421234Y-108630219D03*
%TD*%
D24*
%TO.C,R4*%
X63280000Y-144045000D03*
X61280000Y-144045000D03*
%TD*%
D15*
%TO.C,D14*%
X94530000Y-139737500D03*
X94530000Y-141787500D03*
%TD*%
D16*
%TO.C,R16*%
X94600000Y-146970000D03*
X94600000Y-144970000D03*
%TD*%
%TO.C,R18*%
X80000000Y-150500000D03*
X80000000Y-148500000D03*
%TD*%
D20*
%TO.C,R8*%
X86038980Y-103163655D03*
X86038980Y-105163655D03*
%TD*%
D15*
%TO.C,D11*%
X84560000Y-139997500D03*
X84560000Y-142047500D03*
%TD*%
D36*
%TO.C,J14*%
X144600000Y-134360000D03*
D37*
X144600000Y-131860000D03*
%TD*%
D10*
%TO.C,REF\u002A\u002A*%
X129440000Y-152990000D03*
%TD*%
D38*
%TO.C,J2*%
X133008490Y-160652115D03*
X130468490Y-160652115D03*
X127928490Y-160652115D03*
X125388490Y-160652115D03*
X122848490Y-160652115D03*
D39*
X120308490Y-160652115D03*
%TD*%
%TO.C,J3*%
X132970000Y-143610000D03*
D38*
X130430000Y-143610000D03*
X127890000Y-143610000D03*
X125350000Y-143610000D03*
X122810000Y-143610000D03*
X120270000Y-143610000D03*
%TD*%
D13*
%TO.C,J13*%
X104060000Y-159460000D03*
D14*
X106560000Y-159460000D03*
X109060000Y-159460000D03*
%TD*%
D40*
X50875000Y-87873251D02*
X150625000Y-87873251D01*
X150625000Y-166150000D01*
X50875000Y-166150000D01*
X50875000Y-87873251D01*
M02*
