%TF.GenerationSoftware,KiCad,Pcbnew,8.0.8*%
%TF.CreationDate,2025-03-28T16:36:24+05:30*%
%TF.ProjectId,MainBoard_v1.2.0,4d61696e-426f-4617-9264-5f76312e322e,rev?*%
%TF.SameCoordinates,Original*%
%TF.FileFunction,Legend,Top*%
%TF.FilePolarity,Positive*%
%FSLAX46Y46*%
G04 Gerber Fmt 4.6, Leading zero omitted, Abs format (unit mm)*
G04 Created by KiCad (PCBNEW 8.0.8) date 2025-03-28 16:36:24*
%MOMM*%
%LPD*%
G01*
G04 APERTURE LIST*
G04 Aperture macros list*
%AMRoundRect*
0 Rectangle with rounded corners*
0 $1 Rounding radius*
0 $2 $3 $4 $5 $6 $7 $8 $9 X,Y pos of 4 corners*
0 Add a 4 corners polygon primitive as box body*
4,1,4,$2,$3,$4,$5,$6,$7,$8,$9,$2,$3,0*
0 Add four circle primitives for the rounded corners*
1,1,$1+$1,$2,$3*
1,1,$1+$1,$4,$5*
1,1,$1+$1,$6,$7*
1,1,$1+$1,$8,$9*
0 Add four rect primitives between the rounded corners*
20,1,$1+$1,$2,$3,$4,$5,0*
20,1,$1+$1,$4,$5,$6,$7,0*
20,1,$1+$1,$6,$7,$8,$9,0*
20,1,$1+$1,$8,$9,$2,$3,0*%
G04 Aperture macros list end*
%ADD10C,0.400000*%
%ADD11C,0.200000*%
%ADD12C,0.120000*%
%ADD13C,0.152400*%
%ADD14C,3.200000*%
%ADD15R,2.600000X2.600000*%
%ADD16C,2.600000*%
%ADD17RoundRect,0.250000X-0.600000X-0.725000X0.600000X-0.725000X0.600000X0.725000X-0.600000X0.725000X0*%
%ADD18O,1.700000X1.950000*%
%ADD19RoundRect,0.250000X-0.450000X0.325000X-0.450000X-0.325000X0.450000X-0.325000X0.450000X0.325000X0*%
%ADD20RoundRect,0.250000X0.450000X-0.350000X0.450000X0.350000X-0.450000X0.350000X-0.450000X-0.350000X0*%
%ADD21RoundRect,0.250000X0.450000X-0.325000X0.450000X0.325000X-0.450000X0.325000X-0.450000X-0.325000X0*%
%ADD22RoundRect,0.250000X0.725000X-0.600000X0.725000X0.600000X-0.725000X0.600000X-0.725000X-0.600000X0*%
%ADD23O,1.950000X1.700000*%
%ADD24RoundRect,0.250000X-0.450000X0.350000X-0.450000X-0.350000X0.450000X-0.350000X0.450000X0.350000X0*%
%ADD25RoundRect,0.250000X-0.350000X-0.450000X0.350000X-0.450000X0.350000X0.450000X-0.350000X0.450000X0*%
%ADD26RoundRect,0.250000X0.412500X1.100000X-0.412500X1.100000X-0.412500X-1.100000X0.412500X-1.100000X0*%
%ADD27RoundRect,0.102000X0.754000X-0.754000X0.754000X0.754000X-0.754000X0.754000X-0.754000X-0.754000X0*%
%ADD28RoundRect,0.250000X0.350000X0.450000X-0.350000X0.450000X-0.350000X-0.450000X0.350000X-0.450000X0*%
%ADD29RoundRect,0.250000X0.600000X0.675000X-0.600000X0.675000X-0.600000X-0.675000X0.600000X-0.675000X0*%
%ADD30O,1.700000X1.850000*%
%ADD31R,2.000000X2.000000*%
%ADD32C,2.000000*%
%ADD33RoundRect,0.250000X-0.725000X0.600000X-0.725000X-0.600000X0.725000X-0.600000X0.725000X0.600000X0*%
%ADD34RoundRect,0.250000X-0.325000X-0.450000X0.325000X-0.450000X0.325000X0.450000X-0.325000X0.450000X0*%
%ADD35O,3.800000X5.500000*%
%ADD36O,3.800000X5.300000*%
%ADD37R,1.500000X1.500000*%
%ADD38C,1.600000*%
%ADD39RoundRect,0.250000X0.325000X0.450000X-0.325000X0.450000X-0.325000X-0.450000X0.325000X-0.450000X0*%
%ADD40RoundRect,0.250000X0.750000X-0.600000X0.750000X0.600000X-0.750000X0.600000X-0.750000X-0.600000X0*%
%ADD41O,2.000000X1.700000*%
%ADD42O,1.700000X1.700000*%
%ADD43R,1.700000X1.700000*%
%TA.AperFunction,Profile*%
%ADD44C,0.050000*%
%TD*%
G04 APERTURE END LIST*
D10*
G36*
X134560824Y-119115546D02*
G01*
X134797870Y-119234070D01*
X134894830Y-119331030D01*
X135002057Y-119545484D01*
X135002057Y-119736772D01*
X134894829Y-119951227D01*
X134797869Y-120048186D01*
X134560825Y-120166709D01*
X134034577Y-120298271D01*
X133369537Y-120298271D01*
X132843287Y-120166708D01*
X132606243Y-120048186D01*
X132509285Y-119951229D01*
X132402057Y-119736771D01*
X132402057Y-119545484D01*
X132509284Y-119331028D01*
X132606243Y-119234069D01*
X132843288Y-119115546D01*
X133369537Y-118983985D01*
X134034577Y-118983985D01*
X134560824Y-119115546D01*
G37*
G36*
X135735390Y-133170618D02*
G01*
X131668724Y-133170618D01*
X131668724Y-130926843D01*
X132002057Y-130926843D01*
X132002057Y-132641128D01*
X132005900Y-132680146D01*
X132035763Y-132752242D01*
X132090943Y-132807422D01*
X132163039Y-132837285D01*
X132241075Y-132837285D01*
X132313171Y-132807422D01*
X132368351Y-132752242D01*
X132398214Y-132680146D01*
X132402057Y-132641128D01*
X132402057Y-131983985D01*
X135202057Y-131983985D01*
X135241075Y-131980142D01*
X135313171Y-131950279D01*
X135368351Y-131895099D01*
X135398214Y-131823003D01*
X135398214Y-131744967D01*
X135368351Y-131672871D01*
X135313171Y-131617691D01*
X135241075Y-131587828D01*
X135202057Y-131583985D01*
X132402057Y-131583985D01*
X132402057Y-130926843D01*
X132398214Y-130887825D01*
X132368351Y-130815729D01*
X132313171Y-130760549D01*
X132241075Y-130730686D01*
X132163039Y-130730686D01*
X132090943Y-130760549D01*
X132035763Y-130815729D01*
X132005900Y-130887825D01*
X132002057Y-130926843D01*
X131668724Y-130926843D01*
X131668724Y-128173539D01*
X132005900Y-128173539D01*
X132005900Y-128251575D01*
X132035763Y-128323671D01*
X132090943Y-128378851D01*
X132163039Y-128408714D01*
X132202057Y-128412557D01*
X134583415Y-128412557D01*
X134797869Y-128519784D01*
X134894829Y-128616743D01*
X135002057Y-128831199D01*
X135002057Y-129308201D01*
X134894829Y-129522656D01*
X134797869Y-129619615D01*
X134583415Y-129726843D01*
X132202057Y-129726843D01*
X132163039Y-129730686D01*
X132090943Y-129760549D01*
X132035763Y-129815729D01*
X132005900Y-129887825D01*
X132005900Y-129965861D01*
X132035763Y-130037957D01*
X132090943Y-130093137D01*
X132163039Y-130123000D01*
X132202057Y-130126843D01*
X134630628Y-130126843D01*
X134669646Y-130123000D01*
X134676283Y-130120250D01*
X134683453Y-130119741D01*
X134720071Y-130105728D01*
X135005785Y-129962871D01*
X135022578Y-129952299D01*
X135027455Y-129950280D01*
X135032946Y-129945773D01*
X135038965Y-129941985D01*
X135042426Y-129937993D01*
X135057763Y-129925408D01*
X135200621Y-129782551D01*
X135213208Y-129767212D01*
X135217199Y-129763752D01*
X135220986Y-129757735D01*
X135225493Y-129752244D01*
X135227513Y-129747366D01*
X135238086Y-129730571D01*
X135380943Y-129444856D01*
X135394955Y-129408239D01*
X135395464Y-129401069D01*
X135398214Y-129394432D01*
X135402057Y-129355414D01*
X135402057Y-128783986D01*
X135398214Y-128744968D01*
X135395464Y-128738330D01*
X135394955Y-128731161D01*
X135380943Y-128694544D01*
X135238086Y-128408829D01*
X135227513Y-128392033D01*
X135225493Y-128387156D01*
X135220986Y-128381664D01*
X135217199Y-128375648D01*
X135213208Y-128372187D01*
X135200621Y-128356849D01*
X135057763Y-128213992D01*
X135042426Y-128201406D01*
X135038965Y-128197415D01*
X135032946Y-128193626D01*
X135027455Y-128189120D01*
X135022578Y-128187100D01*
X135005785Y-128176529D01*
X134720071Y-128033672D01*
X134683453Y-128019659D01*
X134676283Y-128019149D01*
X134669646Y-128016400D01*
X134630628Y-128012557D01*
X132202057Y-128012557D01*
X132163039Y-128016400D01*
X132090943Y-128046263D01*
X132035763Y-128101443D01*
X132005900Y-128173539D01*
X131668724Y-128173539D01*
X131668724Y-125355414D01*
X132002057Y-125355414D01*
X132002057Y-126783986D01*
X132005900Y-126823004D01*
X132035763Y-126895100D01*
X132090943Y-126950280D01*
X132163039Y-126980143D01*
X132202057Y-126983986D01*
X135202057Y-126983986D01*
X135241075Y-126980143D01*
X135313171Y-126950280D01*
X135368351Y-126895100D01*
X135398214Y-126823004D01*
X135402057Y-126783986D01*
X135402057Y-125355414D01*
X135398214Y-125316396D01*
X135368351Y-125244300D01*
X135313171Y-125189120D01*
X135241075Y-125159257D01*
X135163039Y-125159257D01*
X135090943Y-125189120D01*
X135035763Y-125244300D01*
X135005900Y-125316396D01*
X135002057Y-125355414D01*
X135002057Y-126583986D01*
X133830628Y-126583986D01*
X133830628Y-125783986D01*
X133826785Y-125744968D01*
X133796922Y-125672872D01*
X133741742Y-125617692D01*
X133669646Y-125587829D01*
X133591610Y-125587829D01*
X133519514Y-125617692D01*
X133464334Y-125672872D01*
X133434471Y-125744968D01*
X133430628Y-125783986D01*
X133430628Y-126583986D01*
X132402057Y-126583986D01*
X132402057Y-125355414D01*
X132398214Y-125316396D01*
X132368351Y-125244300D01*
X132313171Y-125189120D01*
X132241075Y-125159257D01*
X132163039Y-125159257D01*
X132090943Y-125189120D01*
X132035763Y-125244300D01*
X132005900Y-125316396D01*
X132002057Y-125355414D01*
X131668724Y-125355414D01*
X131668724Y-121783986D01*
X133859200Y-121783986D01*
X133859200Y-124069700D01*
X133863043Y-124108718D01*
X133892906Y-124180814D01*
X133948086Y-124235994D01*
X134020182Y-124265857D01*
X134098218Y-124265857D01*
X134170314Y-124235994D01*
X134225494Y-124180814D01*
X134255357Y-124108718D01*
X134259200Y-124069700D01*
X134259200Y-121783986D01*
X134255357Y-121744968D01*
X134225494Y-121672872D01*
X134170314Y-121617692D01*
X134098218Y-121587829D01*
X134020182Y-121587829D01*
X133948086Y-121617692D01*
X133892906Y-121672872D01*
X133863043Y-121744968D01*
X133859200Y-121783986D01*
X131668724Y-121783986D01*
X131668724Y-119498271D01*
X132002057Y-119498271D01*
X132002057Y-119783985D01*
X132005900Y-119823003D01*
X132008649Y-119829640D01*
X132009159Y-119836810D01*
X132023171Y-119873427D01*
X132166029Y-120159143D01*
X132176598Y-120175934D01*
X132178620Y-120180814D01*
X132183127Y-120186306D01*
X132186915Y-120192323D01*
X132190906Y-120195784D01*
X132203493Y-120211121D01*
X132346349Y-120353978D01*
X132361687Y-120366565D01*
X132365148Y-120370556D01*
X132371163Y-120374342D01*
X132376657Y-120378851D01*
X132381536Y-120380872D01*
X132398328Y-120391442D01*
X132684042Y-120534299D01*
X132686897Y-120535391D01*
X132688057Y-120536251D01*
X132704431Y-120542101D01*
X132720660Y-120548312D01*
X132722098Y-120548414D01*
X132724978Y-120549443D01*
X133296406Y-120692299D01*
X133303171Y-120693299D01*
X133305896Y-120694428D01*
X133320597Y-120695875D01*
X133335192Y-120698034D01*
X133338105Y-120697600D01*
X133344914Y-120698271D01*
X134059200Y-120698271D01*
X134066008Y-120697600D01*
X134068922Y-120698034D01*
X134083523Y-120695875D01*
X134098218Y-120694428D01*
X134100940Y-120693300D01*
X134107707Y-120692300D01*
X134679136Y-120549442D01*
X134682012Y-120548414D01*
X134683453Y-120548312D01*
X134699684Y-120542100D01*
X134716057Y-120536251D01*
X134717217Y-120535390D01*
X134720071Y-120534299D01*
X135005785Y-120391442D01*
X135022578Y-120380870D01*
X135027455Y-120378851D01*
X135032946Y-120374344D01*
X135038965Y-120370556D01*
X135042426Y-120366564D01*
X135057763Y-120353979D01*
X135200621Y-120211122D01*
X135213208Y-120195783D01*
X135217199Y-120192323D01*
X135220986Y-120186306D01*
X135225493Y-120180815D01*
X135227513Y-120175937D01*
X135238086Y-120159142D01*
X135380943Y-119873427D01*
X135394955Y-119836810D01*
X135395464Y-119829640D01*
X135398214Y-119823003D01*
X135402057Y-119783985D01*
X135402057Y-119498271D01*
X135398214Y-119459253D01*
X135395464Y-119452615D01*
X135394955Y-119445446D01*
X135380942Y-119408828D01*
X135238085Y-119123114D01*
X135227513Y-119106320D01*
X135225493Y-119101442D01*
X135220986Y-119095950D01*
X135217199Y-119089934D01*
X135213208Y-119086473D01*
X135200621Y-119071135D01*
X135057763Y-118928278D01*
X135042426Y-118915692D01*
X135038965Y-118911701D01*
X135032946Y-118907912D01*
X135027455Y-118903406D01*
X135022578Y-118901386D01*
X135005785Y-118890815D01*
X134720071Y-118747957D01*
X134717218Y-118746865D01*
X134716057Y-118746005D01*
X134699671Y-118740150D01*
X134683454Y-118733945D01*
X134682015Y-118733842D01*
X134679136Y-118732814D01*
X134107707Y-118589956D01*
X134100940Y-118588955D01*
X134098218Y-118587828D01*
X134083523Y-118586380D01*
X134068922Y-118584222D01*
X134066008Y-118584655D01*
X134059200Y-118583985D01*
X133344914Y-118583985D01*
X133338105Y-118584655D01*
X133335192Y-118584222D01*
X133320597Y-118586380D01*
X133305896Y-118587828D01*
X133303171Y-118588956D01*
X133296406Y-118589957D01*
X132724978Y-118732813D01*
X132722095Y-118733842D01*
X132720659Y-118733945D01*
X132704438Y-118740151D01*
X132688057Y-118746005D01*
X132686897Y-118746863D01*
X132684041Y-118747957D01*
X132398328Y-118890815D01*
X132381538Y-118901383D01*
X132376657Y-118903406D01*
X132371159Y-118907917D01*
X132365148Y-118911702D01*
X132361689Y-118915689D01*
X132346349Y-118928279D01*
X132203493Y-119071136D01*
X132190906Y-119086472D01*
X132186915Y-119089934D01*
X132183127Y-119095950D01*
X132178620Y-119101443D01*
X132176598Y-119106322D01*
X132166029Y-119123114D01*
X132023172Y-119408828D01*
X132009159Y-119445446D01*
X132008649Y-119452615D01*
X132005900Y-119459253D01*
X132002057Y-119498271D01*
X131668724Y-119498271D01*
X131668724Y-116069699D01*
X132002057Y-116069699D01*
X132002057Y-117498271D01*
X132003478Y-117512702D01*
X132002991Y-117517577D01*
X132004427Y-117522337D01*
X132005900Y-117537289D01*
X132017087Y-117564297D01*
X132025532Y-117592287D01*
X132031909Y-117600081D01*
X132035763Y-117609385D01*
X132056437Y-117630059D01*
X132074948Y-117652683D01*
X132083820Y-117657442D01*
X132090943Y-117664565D01*
X132117954Y-117675753D01*
X132143714Y-117689572D01*
X132158444Y-117692524D01*
X132163039Y-117694428D01*
X132167939Y-117694428D01*
X132182156Y-117697278D01*
X133610727Y-117840135D01*
X133649934Y-117840194D01*
X133659576Y-117837285D01*
X133669646Y-117837285D01*
X133696654Y-117826097D01*
X133724644Y-117817653D01*
X133732438Y-117811275D01*
X133741742Y-117807422D01*
X133762416Y-117786747D01*
X133785040Y-117768237D01*
X133789799Y-117759364D01*
X133796922Y-117752242D01*
X133808110Y-117725230D01*
X133821929Y-117699471D01*
X133822931Y-117689450D01*
X133826785Y-117680146D01*
X133826785Y-117650911D01*
X133829694Y-117621822D01*
X133826785Y-117612180D01*
X133826785Y-117602110D01*
X133815597Y-117575101D01*
X133807153Y-117547112D01*
X133800775Y-117539317D01*
X133796922Y-117530014D01*
X133772049Y-117499706D01*
X133652141Y-117379799D01*
X133544914Y-117165344D01*
X133544914Y-116545484D01*
X133652141Y-116331029D01*
X133749101Y-116234068D01*
X133963555Y-116126842D01*
X134583415Y-116126842D01*
X134797870Y-116234069D01*
X134894829Y-116331029D01*
X135002057Y-116545484D01*
X135002057Y-117165344D01*
X134894830Y-117379797D01*
X134774921Y-117499706D01*
X134750049Y-117530013D01*
X134720185Y-117602109D01*
X134720185Y-117680145D01*
X134750048Y-117752241D01*
X134805227Y-117807421D01*
X134877323Y-117837285D01*
X134955359Y-117837285D01*
X135027455Y-117807422D01*
X135057763Y-117782550D01*
X135200621Y-117639693D01*
X135213208Y-117624354D01*
X135217199Y-117620894D01*
X135220986Y-117614877D01*
X135225493Y-117609386D01*
X135227513Y-117604507D01*
X135238085Y-117587714D01*
X135380942Y-117302000D01*
X135394955Y-117265382D01*
X135395464Y-117258212D01*
X135398214Y-117251575D01*
X135402057Y-117212557D01*
X135402057Y-116498271D01*
X135398214Y-116459253D01*
X135395464Y-116452615D01*
X135394955Y-116445446D01*
X135380942Y-116408828D01*
X135238085Y-116123114D01*
X135227515Y-116106322D01*
X135225494Y-116101443D01*
X135220985Y-116095949D01*
X135217199Y-116089934D01*
X135213209Y-116086473D01*
X135200622Y-116071136D01*
X135057763Y-115928278D01*
X135042426Y-115915691D01*
X135038965Y-115911700D01*
X135032948Y-115907912D01*
X135027456Y-115903405D01*
X135022576Y-115901383D01*
X135005785Y-115890814D01*
X134720071Y-115747957D01*
X134683453Y-115733944D01*
X134676283Y-115733434D01*
X134669646Y-115730685D01*
X134630628Y-115726842D01*
X133916342Y-115726842D01*
X133877324Y-115730685D01*
X133870686Y-115733434D01*
X133863517Y-115733944D01*
X133826899Y-115747957D01*
X133541185Y-115890814D01*
X133524391Y-115901385D01*
X133519513Y-115903406D01*
X133514021Y-115907912D01*
X133508005Y-115911700D01*
X133504544Y-115915690D01*
X133489206Y-115928278D01*
X133346349Y-116071136D01*
X133333763Y-116086472D01*
X133329772Y-116089934D01*
X133325983Y-116095952D01*
X133321477Y-116101444D01*
X133319457Y-116106320D01*
X133308886Y-116123114D01*
X133166029Y-116408828D01*
X133152016Y-116445446D01*
X133151506Y-116452615D01*
X133148757Y-116459253D01*
X133144914Y-116498271D01*
X133144914Y-117212557D01*
X133148757Y-117251575D01*
X133151506Y-117258212D01*
X133152016Y-117265382D01*
X133166029Y-117302000D01*
X133214276Y-117398495D01*
X132402057Y-117317273D01*
X132402057Y-116069699D01*
X132398214Y-116030681D01*
X132368351Y-115958585D01*
X132313171Y-115903405D01*
X132241075Y-115873542D01*
X132163039Y-115873542D01*
X132090943Y-115903405D01*
X132035763Y-115958585D01*
X132005900Y-116030681D01*
X132002057Y-116069699D01*
X131668724Y-116069699D01*
X131668724Y-115393509D01*
X135735390Y-115393509D01*
X135735390Y-133170618D01*
G37*
D11*
X139802219Y-134099523D02*
X140516504Y-134099523D01*
X140516504Y-134099523D02*
X140659361Y-134147142D01*
X140659361Y-134147142D02*
X140754600Y-134242380D01*
X140754600Y-134242380D02*
X140802219Y-134385237D01*
X140802219Y-134385237D02*
X140802219Y-134480475D01*
X140802219Y-133099523D02*
X140802219Y-133670951D01*
X140802219Y-133385237D02*
X139802219Y-133385237D01*
X139802219Y-133385237D02*
X139945076Y-133480475D01*
X139945076Y-133480475D02*
X140040314Y-133575713D01*
X140040314Y-133575713D02*
X140087933Y-133670951D01*
X140135552Y-132242380D02*
X140802219Y-132242380D01*
X139754600Y-132480475D02*
X140468885Y-132718570D01*
X140468885Y-132718570D02*
X140468885Y-132099523D01*
D12*
%TO.C,J15*%
X142145000Y-89565000D02*
X142145000Y-88825000D01*
X142145000Y-88825000D02*
X141645000Y-88825000D01*
X141905000Y-98986000D02*
X141905000Y-89065000D01*
X141905000Y-98986000D02*
X131625000Y-98986000D01*
X141905000Y-96026000D02*
X131625000Y-96026000D01*
X141905000Y-91125000D02*
X131625000Y-91125000D01*
X141905000Y-89625000D02*
X131625000Y-89625000D01*
X141905000Y-89065000D02*
X131625000Y-89065000D01*
X135452000Y-92702000D02*
X135499000Y-92656000D01*
X135259000Y-92486000D02*
X135294000Y-92451000D01*
X133155000Y-95000000D02*
X133190000Y-94964000D01*
X132950000Y-94794000D02*
X132997000Y-94748000D01*
X131625000Y-98986000D02*
X131625000Y-89065000D01*
X140840427Y-93041958D02*
G75*
G02*
X140840000Y-94409000I-1535420J-683041D01*
G01*
X139988042Y-95260427D02*
G75*
G02*
X138621000Y-95260000I-683041J1535420D01*
G01*
X139276195Y-92044747D02*
G75*
G02*
X139989000Y-92190000I28806J-1680254D01*
G01*
X138621682Y-92190244D02*
G75*
G02*
X139305000Y-92045000I683318J-1534756D01*
G01*
X137769573Y-94408042D02*
G75*
G02*
X137770000Y-93041000I1535427J683042D01*
G01*
X135905000Y-93725000D02*
G75*
G02*
X132545000Y-93725000I-1680000J0D01*
G01*
X132545000Y-93725000D02*
G75*
G02*
X135905000Y-93725000I1680000J0D01*
G01*
%TO.C,J6*%
X92980000Y-90805000D02*
X92980000Y-92055000D01*
X93270000Y-91095000D02*
X93270000Y-97065000D01*
X93270000Y-97065000D02*
X103390000Y-97065000D01*
X93280000Y-91105000D02*
X93280000Y-91855000D01*
X93280000Y-91855000D02*
X95080000Y-91855000D01*
X93280000Y-93355000D02*
X94030000Y-93355000D01*
X94030000Y-93355000D02*
X94030000Y-96305000D01*
X94030000Y-96305000D02*
X98330000Y-96305000D01*
X94230000Y-90805000D02*
X92980000Y-90805000D01*
X95080000Y-91105000D02*
X93280000Y-91105000D01*
X95080000Y-91855000D02*
X95080000Y-91105000D01*
X96580000Y-91105000D02*
X96580000Y-91855000D01*
X96580000Y-91855000D02*
X100080000Y-91855000D01*
X100080000Y-91105000D02*
X96580000Y-91105000D01*
X100080000Y-91855000D02*
X100080000Y-91105000D01*
X101580000Y-91105000D02*
X101580000Y-91855000D01*
X101580000Y-91855000D02*
X103380000Y-91855000D01*
X102630000Y-93355000D02*
X102630000Y-96305000D01*
X102630000Y-96305000D02*
X98330000Y-96305000D01*
X103380000Y-91105000D02*
X101580000Y-91105000D01*
X103380000Y-91855000D02*
X103380000Y-91105000D01*
X103380000Y-93355000D02*
X102630000Y-93355000D01*
X103390000Y-91095000D02*
X93270000Y-91095000D01*
X103390000Y-97065000D02*
X103390000Y-91095000D01*
%TO.C,D12*%
X87320000Y-139072500D02*
X87320000Y-141932500D01*
X89240000Y-139072500D02*
X87320000Y-139072500D01*
X89240000Y-141932500D02*
X89240000Y-139072500D01*
%TO.C,R14*%
X87385000Y-146227064D02*
X87385000Y-145772936D01*
X88855000Y-146227064D02*
X88855000Y-145772936D01*
%TO.C,J5*%
X76410000Y-156685000D02*
X76410000Y-157935000D01*
X76700000Y-156975000D02*
X76700000Y-162945000D01*
X76700000Y-162945000D02*
X89320000Y-162945000D01*
X76710000Y-156985000D02*
X76710000Y-157735000D01*
X76710000Y-157735000D02*
X78510000Y-157735000D01*
X76710000Y-159235000D02*
X77460000Y-159235000D01*
X77460000Y-159235000D02*
X77460000Y-162185000D01*
X77460000Y-162185000D02*
X83010000Y-162185000D01*
X77660000Y-156685000D02*
X76410000Y-156685000D01*
X78510000Y-156985000D02*
X76710000Y-156985000D01*
X78510000Y-157735000D02*
X78510000Y-156985000D01*
X80010000Y-156985000D02*
X80010000Y-157735000D01*
X80010000Y-157735000D02*
X86010000Y-157735000D01*
X86010000Y-156985000D02*
X80010000Y-156985000D01*
X86010000Y-157735000D02*
X86010000Y-156985000D01*
X87510000Y-156985000D02*
X87510000Y-157735000D01*
X87510000Y-157735000D02*
X89310000Y-157735000D01*
X88560000Y-159235000D02*
X88560000Y-162185000D01*
X88560000Y-162185000D02*
X83010000Y-162185000D01*
X89310000Y-156985000D02*
X87510000Y-156985000D01*
X89310000Y-157735000D02*
X89310000Y-156985000D01*
X89310000Y-159235000D02*
X88560000Y-159235000D01*
X89320000Y-156975000D02*
X76700000Y-156975000D01*
X89320000Y-162945000D02*
X89320000Y-156975000D01*
%TO.C,D6*%
X88302331Y-108656165D02*
X88302331Y-111516165D01*
X88302331Y-111516165D02*
X90222331Y-111516165D01*
X90222331Y-111516165D02*
X90222331Y-108656165D01*
%TO.C,J1*%
X142180000Y-150240000D02*
X142180000Y-151490000D01*
X142180000Y-151490000D02*
X143430000Y-151490000D01*
X142470000Y-138580000D02*
X142470000Y-151200000D01*
X142470000Y-151200000D02*
X148440000Y-151200000D01*
X142480000Y-138590000D02*
X142480000Y-140390000D01*
X142480000Y-140390000D02*
X143230000Y-140390000D01*
X142480000Y-141890000D02*
X142480000Y-147890000D01*
X142480000Y-147890000D02*
X143230000Y-147890000D01*
X142480000Y-149390000D02*
X142480000Y-151190000D01*
X142480000Y-151190000D02*
X143230000Y-151190000D01*
X143230000Y-138590000D02*
X142480000Y-138590000D01*
X143230000Y-140390000D02*
X143230000Y-138590000D01*
X143230000Y-141890000D02*
X142480000Y-141890000D01*
X143230000Y-147890000D02*
X143230000Y-141890000D01*
X143230000Y-149390000D02*
X142480000Y-149390000D01*
X143230000Y-151190000D02*
X143230000Y-149390000D01*
X144730000Y-138590000D02*
X144730000Y-139340000D01*
X144730000Y-139340000D02*
X147680000Y-139340000D01*
X144730000Y-150440000D02*
X147680000Y-150440000D01*
X144730000Y-151190000D02*
X144730000Y-150440000D01*
X147680000Y-139340000D02*
X147680000Y-144890000D01*
X147680000Y-150440000D02*
X147680000Y-144890000D01*
X148440000Y-138580000D02*
X142470000Y-138580000D01*
X148440000Y-151200000D02*
X148440000Y-138580000D01*
%TO.C,R25*%
X67265000Y-133572936D02*
X67265000Y-134027064D01*
X68735000Y-133572936D02*
X68735000Y-134027064D01*
%TO.C,D5*%
X84988052Y-108635491D02*
X84988052Y-111495491D01*
X84988052Y-111495491D02*
X86908052Y-111495491D01*
X86908052Y-111495491D02*
X86908052Y-108635491D01*
%TO.C,R7*%
X81863231Y-103938051D02*
X81863231Y-104392179D01*
X83333231Y-103938051D02*
X83333231Y-104392179D01*
%TO.C,BATTERY_CONN2*%
X52225000Y-95665000D02*
X52225000Y-96165000D01*
X52465000Y-95905000D02*
X52465000Y-106185000D01*
X52965000Y-95665000D02*
X52225000Y-95665000D01*
X53025000Y-95905000D02*
X53025000Y-106185000D01*
X54525000Y-95905000D02*
X54525000Y-106185000D01*
X55886000Y-102551000D02*
X55851000Y-102516000D01*
X56102000Y-102358000D02*
X56056000Y-102311000D01*
X58194000Y-104860000D02*
X58148000Y-104813000D01*
X58400000Y-104655000D02*
X58364000Y-104620000D01*
X59426000Y-95905000D02*
X59426000Y-106185000D01*
X62386000Y-95905000D02*
X52465000Y-95905000D01*
X62386000Y-95905000D02*
X62386000Y-106185000D01*
X62386000Y-106185000D02*
X52465000Y-106185000D01*
X55444747Y-98533805D02*
G75*
G02*
X55590000Y-97821000I1680254J28806D01*
G01*
X55590244Y-99188318D02*
G75*
G02*
X55445000Y-98505000I1534756J683318D01*
G01*
X56441958Y-96969573D02*
G75*
G02*
X57809000Y-96970000I683041J-1535420D01*
G01*
X57808042Y-100040427D02*
G75*
G02*
X56441000Y-100040000I-683042J1535427D01*
G01*
X58660427Y-97821958D02*
G75*
G02*
X58660000Y-99189000I-1535420J-683041D01*
G01*
X58805000Y-103585000D02*
G75*
G02*
X55445000Y-103585000I-1680000J0D01*
G01*
X55445000Y-103585000D02*
G75*
G02*
X58805000Y-103585000I1680000J0D01*
G01*
%TO.C,R2*%
X93772936Y-126265000D02*
X94227064Y-126265000D01*
X93772936Y-127735000D02*
X94227064Y-127735000D01*
%TO.C,R12*%
X83905000Y-146107064D02*
X83905000Y-145652936D01*
X85375000Y-146107064D02*
X85375000Y-145652936D01*
%TO.C,J9*%
X139375000Y-163235000D02*
X139375000Y-163975000D01*
X139375000Y-163975000D02*
X139875000Y-163975000D01*
X139615000Y-153814000D02*
X139615000Y-163735000D01*
X139615000Y-153814000D02*
X149895000Y-153814000D01*
X139615000Y-156774000D02*
X149895000Y-156774000D01*
X139615000Y-161675000D02*
X149895000Y-161675000D01*
X139615000Y-163175000D02*
X149895000Y-163175000D01*
X139615000Y-163735000D02*
X149895000Y-163735000D01*
X146068000Y-160098000D02*
X146021000Y-160144000D01*
X146261000Y-160314000D02*
X146226000Y-160349000D01*
X148365000Y-157800000D02*
X148330000Y-157836000D01*
X148570000Y-158006000D02*
X148523000Y-158052000D01*
X149895000Y-153814000D02*
X149895000Y-163735000D01*
X140679573Y-159758042D02*
G75*
G02*
X140680000Y-158391000I1535420J683041D01*
G01*
X141531958Y-157539573D02*
G75*
G02*
X142899000Y-157540000I683041J-1535420D01*
G01*
X142243805Y-160755253D02*
G75*
G02*
X141531000Y-160610000I-28806J1680254D01*
G01*
X142898318Y-160609756D02*
G75*
G02*
X142215000Y-160755000I-683318J1534756D01*
G01*
X143750427Y-158391958D02*
G75*
G02*
X143750000Y-159759000I-1535427J-683042D01*
G01*
X148975000Y-159075000D02*
G75*
G02*
X145615000Y-159075000I-1680000J0D01*
G01*
X145615000Y-159075000D02*
G75*
G02*
X148975000Y-159075000I1680000J0D01*
G01*
%TO.C,BATTERY_CONN4*%
X65245000Y-99656000D02*
X65245000Y-89735000D01*
X66570000Y-95464000D02*
X66617000Y-95418000D01*
X66775000Y-95670000D02*
X66810000Y-95634000D01*
X68879000Y-93156000D02*
X68914000Y-93121000D01*
X69072000Y-93372000D02*
X69119000Y-93326000D01*
X75525000Y-89735000D02*
X65245000Y-89735000D01*
X75525000Y-90295000D02*
X65245000Y-90295000D01*
X75525000Y-91795000D02*
X65245000Y-91795000D01*
X75525000Y-96696000D02*
X65245000Y-96696000D01*
X75525000Y-99656000D02*
X65245000Y-99656000D01*
X75525000Y-99656000D02*
X75525000Y-89735000D01*
X75765000Y-89495000D02*
X75265000Y-89495000D01*
X75765000Y-90235000D02*
X75765000Y-89495000D01*
X71389573Y-95078042D02*
G75*
G02*
X71390000Y-93711000I1535427J683042D01*
G01*
X72241682Y-92860244D02*
G75*
G02*
X72925000Y-92715000I683318J-1534756D01*
G01*
X72896195Y-92714747D02*
G75*
G02*
X73609000Y-92860000I28806J-1680254D01*
G01*
X73608042Y-95930427D02*
G75*
G02*
X72241000Y-95930000I-683041J1535420D01*
G01*
X74460427Y-93711958D02*
G75*
G02*
X74460000Y-95079000I-1535420J-683041D01*
G01*
X69525000Y-94395000D02*
G75*
G02*
X66165000Y-94395000I-1680000J0D01*
G01*
X66165000Y-94395000D02*
G75*
G02*
X69525000Y-94395000I1680000J0D01*
G01*
%TO.C,D13*%
X90550000Y-139122500D02*
X90550000Y-141982500D01*
X92470000Y-139122500D02*
X90550000Y-139122500D01*
X92470000Y-141982500D02*
X92470000Y-139122500D01*
%TO.C,C1*%
X133401252Y-101280000D02*
X131978748Y-101280000D01*
X133401252Y-104000000D02*
X131978748Y-104000000D01*
%TO.C,R23*%
X64518824Y-129602760D02*
X64972952Y-129602760D01*
X64518824Y-131072760D02*
X64972952Y-131072760D01*
%TO.C,D7*%
X91568150Y-108621742D02*
X91568150Y-111481742D01*
X91568150Y-111481742D02*
X93488150Y-111481742D01*
X93488150Y-111481742D02*
X93488150Y-108621742D01*
%TO.C,R33*%
X136555000Y-106837064D02*
X136555000Y-106382936D01*
X138025000Y-106837064D02*
X138025000Y-106382936D01*
%TO.C,R10*%
X91955062Y-103836159D02*
X91955062Y-104290287D01*
X93425062Y-103836159D02*
X93425062Y-104290287D01*
%TO.C,R15*%
X90615000Y-146207064D02*
X90615000Y-145752936D01*
X92085000Y-146207064D02*
X92085000Y-145752936D01*
D13*
%TO.C,U1*%
X74060000Y-120690000D02*
X74060000Y-128393310D01*
X74060000Y-128393310D02*
X79140000Y-128393310D01*
X76600000Y-113070000D02*
X76600000Y-135930000D01*
X76600000Y-135930000D02*
X129940000Y-135930000D01*
X79140000Y-120690000D02*
X74060000Y-120690000D01*
X79140000Y-128393310D02*
X79140000Y-120690000D01*
X129940000Y-113070000D02*
X76600000Y-113070000D01*
X129940000Y-135930000D02*
X129940000Y-113070000D01*
D12*
%TO.C,R5*%
X56042936Y-146730000D02*
X56497064Y-146730000D01*
X56042936Y-148200000D02*
X56497064Y-148200000D01*
%TO.C,R29*%
X70727064Y-108765000D02*
X70272936Y-108765000D01*
X70727064Y-110235000D02*
X70272936Y-110235000D01*
%TO.C,J11*%
X78000000Y-89755000D02*
X78000000Y-91005000D01*
X78290000Y-90045000D02*
X78290000Y-96015000D01*
X78290000Y-96015000D02*
X90910000Y-96015000D01*
X78300000Y-90055000D02*
X78300000Y-90805000D01*
X78300000Y-90805000D02*
X80100000Y-90805000D01*
X78300000Y-92305000D02*
X79050000Y-92305000D01*
X79050000Y-92305000D02*
X79050000Y-95255000D01*
X79050000Y-95255000D02*
X84600000Y-95255000D01*
X79250000Y-89755000D02*
X78000000Y-89755000D01*
X80100000Y-90055000D02*
X78300000Y-90055000D01*
X80100000Y-90805000D02*
X80100000Y-90055000D01*
X81600000Y-90055000D02*
X81600000Y-90805000D01*
X81600000Y-90805000D02*
X87600000Y-90805000D01*
X87600000Y-90055000D02*
X81600000Y-90055000D01*
X87600000Y-90805000D02*
X87600000Y-90055000D01*
X89100000Y-90055000D02*
X89100000Y-90805000D01*
X89100000Y-90805000D02*
X90900000Y-90805000D01*
X90150000Y-92305000D02*
X90150000Y-95255000D01*
X90150000Y-95255000D02*
X84600000Y-95255000D01*
X90900000Y-90055000D02*
X89100000Y-90055000D01*
X90900000Y-90805000D02*
X90900000Y-90055000D01*
X90900000Y-92305000D02*
X90150000Y-92305000D01*
X90910000Y-90045000D02*
X78290000Y-90045000D01*
X90910000Y-96015000D02*
X90910000Y-90045000D01*
%TO.C,Q1*%
X65440000Y-155090000D02*
X65440000Y-159210000D01*
X65440000Y-159210000D02*
X75560000Y-159210000D01*
X66440000Y-154090000D02*
X65440000Y-155090000D01*
X75560000Y-154090000D02*
X66440000Y-154090000D01*
X75560000Y-159210000D02*
X75560000Y-154090000D01*
X75860000Y-153790000D02*
X73450000Y-153790000D01*
X75860000Y-156200000D02*
X75860000Y-153790000D01*
%TO.C,JP1*%
X149990000Y-121680000D02*
G75*
G02*
X137790000Y-121680000I-6100000J0D01*
G01*
X137790000Y-121680000D02*
G75*
G02*
X149990000Y-121680000I6100000J0D01*
G01*
%TO.C,R31*%
X138554952Y-109941019D02*
X138100824Y-109941019D01*
X138554952Y-111411019D02*
X138100824Y-111411019D01*
%TO.C,R19*%
X78733554Y-144296314D02*
X78279426Y-144296314D01*
X78733554Y-145766314D02*
X78279426Y-145766314D01*
%TO.C,R13*%
X138714564Y-101175000D02*
X138260436Y-101175000D01*
X138714564Y-102645000D02*
X138260436Y-102645000D01*
%TO.C,J12*%
X142990000Y-100440000D02*
X142990000Y-113060000D01*
X142990000Y-113060000D02*
X148960000Y-113060000D01*
X143750000Y-101200000D02*
X143750000Y-106750000D01*
X143750000Y-112300000D02*
X143750000Y-106750000D01*
X146700000Y-100450000D02*
X146700000Y-101200000D01*
X146700000Y-101200000D02*
X143750000Y-101200000D01*
X146700000Y-112300000D02*
X143750000Y-112300000D01*
X146700000Y-113050000D02*
X146700000Y-112300000D01*
X148200000Y-100450000D02*
X148200000Y-102250000D01*
X148200000Y-102250000D02*
X148950000Y-102250000D01*
X148200000Y-103750000D02*
X148200000Y-109750000D01*
X148200000Y-109750000D02*
X148950000Y-109750000D01*
X148200000Y-111250000D02*
X148200000Y-113050000D01*
X148200000Y-113050000D02*
X148950000Y-113050000D01*
X148950000Y-100450000D02*
X148200000Y-100450000D01*
X148950000Y-102250000D02*
X148950000Y-100450000D01*
X148950000Y-103750000D02*
X148200000Y-103750000D01*
X148950000Y-109750000D02*
X148950000Y-103750000D01*
X148950000Y-111250000D02*
X148200000Y-111250000D01*
X148950000Y-113050000D02*
X148950000Y-111250000D01*
X148960000Y-100440000D02*
X142990000Y-100440000D01*
X148960000Y-113060000D02*
X148960000Y-100440000D01*
X149250000Y-100150000D02*
X148000000Y-100150000D01*
X149250000Y-101400000D02*
X149250000Y-100150000D01*
%TO.C,D2*%
X54420000Y-143085000D02*
X54420000Y-145005000D01*
X54420000Y-145005000D02*
X57280000Y-145005000D01*
X57280000Y-143085000D02*
X54420000Y-143085000D01*
%TO.C,R1*%
X74085000Y-151307064D02*
X74085000Y-150852936D01*
X75555000Y-151307064D02*
X75555000Y-150852936D01*
%TO.C,F1*%
X68500000Y-146550000D02*
X68500000Y-143350000D01*
X70500000Y-145700000D02*
X70500000Y-144100000D01*
X72500000Y-143350000D02*
X72500000Y-146550000D01*
%TO.C,J4*%
X90040000Y-156715000D02*
X90040000Y-157965000D01*
X90330000Y-157005000D02*
X90330000Y-162975000D01*
X90330000Y-162975000D02*
X100450000Y-162975000D01*
X90340000Y-157015000D02*
X90340000Y-157765000D01*
X90340000Y-157765000D02*
X92140000Y-157765000D01*
X90340000Y-159265000D02*
X91090000Y-159265000D01*
X91090000Y-159265000D02*
X91090000Y-162215000D01*
X91090000Y-162215000D02*
X95390000Y-162215000D01*
X91290000Y-156715000D02*
X90040000Y-156715000D01*
X92140000Y-157015000D02*
X90340000Y-157015000D01*
X92140000Y-157765000D02*
X92140000Y-157015000D01*
X93640000Y-157015000D02*
X93640000Y-157765000D01*
X93640000Y-157765000D02*
X97140000Y-157765000D01*
X97140000Y-157015000D02*
X93640000Y-157015000D01*
X97140000Y-157765000D02*
X97140000Y-157015000D01*
X98640000Y-157015000D02*
X98640000Y-157765000D01*
X98640000Y-157765000D02*
X100440000Y-157765000D01*
X99690000Y-159265000D02*
X99690000Y-162215000D01*
X99690000Y-162215000D02*
X95390000Y-162215000D01*
X100440000Y-157015000D02*
X98640000Y-157015000D01*
X100440000Y-157765000D02*
X100440000Y-157015000D01*
X100440000Y-159265000D02*
X99690000Y-159265000D01*
X100450000Y-157005000D02*
X90330000Y-157005000D01*
X100450000Y-162975000D02*
X100450000Y-157005000D01*
%TO.C,J10*%
X54515000Y-127690000D02*
X54515000Y-140310000D01*
X54515000Y-140310000D02*
X60485000Y-140310000D01*
X55275000Y-128450000D02*
X55275000Y-134000000D01*
X55275000Y-139550000D02*
X55275000Y-134000000D01*
X58225000Y-127700000D02*
X58225000Y-128450000D01*
X58225000Y-128450000D02*
X55275000Y-128450000D01*
X58225000Y-139550000D02*
X55275000Y-139550000D01*
X58225000Y-140300000D02*
X58225000Y-139550000D01*
X59725000Y-127700000D02*
X59725000Y-129500000D01*
X59725000Y-129500000D02*
X60475000Y-129500000D01*
X59725000Y-131000000D02*
X59725000Y-137000000D01*
X59725000Y-137000000D02*
X60475000Y-137000000D01*
X59725000Y-138500000D02*
X59725000Y-140300000D01*
X59725000Y-140300000D02*
X60475000Y-140300000D01*
X60475000Y-127700000D02*
X59725000Y-127700000D01*
X60475000Y-129500000D02*
X60475000Y-127700000D01*
X60475000Y-131000000D02*
X59725000Y-131000000D01*
X60475000Y-137000000D02*
X60475000Y-131000000D01*
X60475000Y-138500000D02*
X59725000Y-138500000D01*
X60475000Y-140300000D02*
X60475000Y-138500000D01*
X60485000Y-127690000D02*
X54515000Y-127690000D01*
X60485000Y-140310000D02*
X60485000Y-127690000D01*
X60775000Y-127400000D02*
X59525000Y-127400000D01*
X60775000Y-128650000D02*
X60775000Y-127400000D01*
%TO.C,R9*%
X88655869Y-103873989D02*
X88655869Y-104328117D01*
X90125869Y-103873989D02*
X90125869Y-104328117D01*
%TO.C,J7*%
X105150000Y-90780000D02*
X105150000Y-92030000D01*
X105440000Y-91070000D02*
X105440000Y-97040000D01*
X105440000Y-97040000D02*
X115560000Y-97040000D01*
X105450000Y-91080000D02*
X105450000Y-91830000D01*
X105450000Y-91830000D02*
X107250000Y-91830000D01*
X105450000Y-93330000D02*
X106200000Y-93330000D01*
X106200000Y-93330000D02*
X106200000Y-96280000D01*
X106200000Y-96280000D02*
X110500000Y-96280000D01*
X106400000Y-90780000D02*
X105150000Y-90780000D01*
X107250000Y-91080000D02*
X105450000Y-91080000D01*
X107250000Y-91830000D02*
X107250000Y-91080000D01*
X108750000Y-91080000D02*
X108750000Y-91830000D01*
X108750000Y-91830000D02*
X112250000Y-91830000D01*
X112250000Y-91080000D02*
X108750000Y-91080000D01*
X112250000Y-91830000D02*
X112250000Y-91080000D01*
X113750000Y-91080000D02*
X113750000Y-91830000D01*
X113750000Y-91830000D02*
X115550000Y-91830000D01*
X114800000Y-93330000D02*
X114800000Y-96280000D01*
X114800000Y-96280000D02*
X110500000Y-96280000D01*
X115550000Y-91080000D02*
X113750000Y-91080000D01*
X115550000Y-91830000D02*
X115550000Y-91080000D01*
X115550000Y-93330000D02*
X114800000Y-93330000D01*
X115560000Y-91070000D02*
X105440000Y-91070000D01*
X115560000Y-97040000D02*
X115560000Y-91070000D01*
%TO.C,R27*%
X71265000Y-105272936D02*
X71265000Y-105727064D01*
X72735000Y-105272936D02*
X72735000Y-105727064D01*
%TO.C,SW2*%
X65430000Y-160640000D02*
X75650000Y-160640000D01*
X75650000Y-163360000D01*
X65430000Y-163360000D01*
X65430000Y-160640000D01*
%TO.C,SW1*%
X127420000Y-105820000D02*
X127420000Y-104320000D01*
X126170000Y-101820000D02*
X121670000Y-101820000D01*
X121670000Y-108320000D02*
X126170000Y-108320000D01*
X120420000Y-104320000D02*
X120420000Y-105820000D01*
%TO.C,BATTERY_CONN3*%
X52375000Y-107405000D02*
X52375000Y-107905000D01*
X52615000Y-107645000D02*
X52615000Y-117925000D01*
X53115000Y-107405000D02*
X52375000Y-107405000D01*
X53175000Y-107645000D02*
X53175000Y-117925000D01*
X54675000Y-107645000D02*
X54675000Y-117925000D01*
X56036000Y-114291000D02*
X56001000Y-114256000D01*
X56252000Y-114098000D02*
X56206000Y-114051000D01*
X58344000Y-116600000D02*
X58298000Y-116553000D01*
X58550000Y-116395000D02*
X58514000Y-116360000D01*
X59576000Y-107645000D02*
X59576000Y-117925000D01*
X62536000Y-107645000D02*
X52615000Y-107645000D01*
X62536000Y-107645000D02*
X62536000Y-117925000D01*
X62536000Y-117925000D02*
X52615000Y-117925000D01*
X55594747Y-110273805D02*
G75*
G02*
X55740000Y-109561000I1680254J28806D01*
G01*
X55740244Y-110928318D02*
G75*
G02*
X55595000Y-110245000I1534756J683318D01*
G01*
X56591958Y-108709573D02*
G75*
G02*
X57959000Y-108710000I683041J-1535420D01*
G01*
X57958042Y-111780427D02*
G75*
G02*
X56591000Y-111780000I-683042J1535427D01*
G01*
X58810427Y-109561958D02*
G75*
G02*
X58810000Y-110929000I-1535420J-683041D01*
G01*
X58955000Y-115325000D02*
G75*
G02*
X55595000Y-115325000I-1680000J0D01*
G01*
X55595000Y-115325000D02*
G75*
G02*
X58955000Y-115325000I1680000J0D01*
G01*
%TO.C,D3*%
X61300000Y-148405000D02*
X64160000Y-148405000D01*
X64160000Y-146485000D02*
X61300000Y-146485000D01*
X64160000Y-148405000D02*
X64160000Y-146485000D01*
%TO.C,BATTERY_CONN1*%
X53100000Y-150160000D02*
X53100000Y-150660000D01*
X53340000Y-150400000D02*
X53340000Y-160680000D01*
X53840000Y-150160000D02*
X53100000Y-150160000D01*
X53900000Y-150400000D02*
X53900000Y-160680000D01*
X55400000Y-150400000D02*
X55400000Y-160680000D01*
X56761000Y-157046000D02*
X56726000Y-157011000D01*
X56977000Y-156853000D02*
X56931000Y-156806000D01*
X59069000Y-159355000D02*
X59023000Y-159308000D01*
X59275000Y-159150000D02*
X59239000Y-159115000D01*
X60301000Y-150400000D02*
X60301000Y-160680000D01*
X63261000Y-150400000D02*
X53340000Y-150400000D01*
X63261000Y-150400000D02*
X63261000Y-160680000D01*
X63261000Y-160680000D02*
X53340000Y-160680000D01*
X56319747Y-153028805D02*
G75*
G02*
X56465000Y-152316000I1680254J28806D01*
G01*
X56465244Y-153683318D02*
G75*
G02*
X56320000Y-153000000I1534756J683318D01*
G01*
X57316958Y-151464573D02*
G75*
G02*
X58684000Y-151465000I683041J-1535420D01*
G01*
X58683042Y-154535427D02*
G75*
G02*
X57316000Y-154535000I-683042J1535427D01*
G01*
X59535427Y-152316958D02*
G75*
G02*
X59535000Y-153684000I-1535420J-683041D01*
G01*
X59680000Y-158080000D02*
G75*
G02*
X56320000Y-158080000I-1680000J0D01*
G01*
X56320000Y-158080000D02*
G75*
G02*
X59680000Y-158080000I1680000J0D01*
G01*
%TO.C,J8*%
X118560000Y-99021000D02*
X118560000Y-89100000D01*
X119885000Y-94829000D02*
X119932000Y-94783000D01*
X120090000Y-95035000D02*
X120125000Y-94999000D01*
X122194000Y-92521000D02*
X122229000Y-92486000D01*
X122387000Y-92737000D02*
X122434000Y-92691000D01*
X128840000Y-89100000D02*
X118560000Y-89100000D01*
X128840000Y-89660000D02*
X118560000Y-89660000D01*
X128840000Y-91160000D02*
X118560000Y-91160000D01*
X128840000Y-96061000D02*
X118560000Y-96061000D01*
X128840000Y-99021000D02*
X118560000Y-99021000D01*
X128840000Y-99021000D02*
X128840000Y-89100000D01*
X129080000Y-88860000D02*
X128580000Y-88860000D01*
X129080000Y-89600000D02*
X129080000Y-88860000D01*
X124704573Y-94443042D02*
G75*
G02*
X124705000Y-93076000I1535427J683042D01*
G01*
X125556682Y-92225244D02*
G75*
G02*
X126240000Y-92080000I683318J-1534756D01*
G01*
X126211195Y-92079747D02*
G75*
G02*
X126924000Y-92225000I28806J-1680254D01*
G01*
X126923042Y-95295427D02*
G75*
G02*
X125556000Y-95295000I-683041J1535420D01*
G01*
X127775427Y-93076958D02*
G75*
G02*
X127775000Y-94444000I-1535420J-683041D01*
G01*
X122840000Y-93760000D02*
G75*
G02*
X119480000Y-93760000I-1680000J0D01*
G01*
X119480000Y-93760000D02*
G75*
G02*
X122840000Y-93760000I1680000J0D01*
G01*
%TO.C,D4*%
X81461234Y-108655219D02*
X81461234Y-111515219D01*
X81461234Y-111515219D02*
X83381234Y-111515219D01*
X83381234Y-111515219D02*
X83381234Y-108655219D01*
%TO.C,R4*%
X62507064Y-143310000D02*
X62052936Y-143310000D01*
X62507064Y-144780000D02*
X62052936Y-144780000D01*
%TO.C,D14*%
X93570000Y-138902500D02*
X93570000Y-141762500D01*
X95490000Y-138902500D02*
X93570000Y-138902500D01*
X95490000Y-141762500D02*
X95490000Y-138902500D01*
%TO.C,R16*%
X93865000Y-146197064D02*
X93865000Y-145742936D01*
X95335000Y-146197064D02*
X95335000Y-145742936D01*
%TO.C,R18*%
X79265000Y-149727064D02*
X79265000Y-149272936D01*
X80735000Y-149727064D02*
X80735000Y-149272936D01*
%TO.C,R8*%
X85303980Y-103936591D02*
X85303980Y-104390719D01*
X86773980Y-103936591D02*
X86773980Y-104390719D01*
%TO.C,D11*%
X83600000Y-139162500D02*
X83600000Y-142022500D01*
X85520000Y-139162500D02*
X83600000Y-139162500D01*
X85520000Y-142022500D02*
X85520000Y-139162500D01*
%TO.C,J14*%
X141850000Y-135960000D02*
X141850000Y-137210000D01*
X141850000Y-137210000D02*
X143100000Y-137210000D01*
X142140000Y-129300000D02*
X142140000Y-136920000D01*
X142140000Y-136920000D02*
X148110000Y-136920000D01*
X142150000Y-129310000D02*
X142150000Y-131110000D01*
X142150000Y-131110000D02*
X142900000Y-131110000D01*
X142150000Y-132610000D02*
X142150000Y-133610000D01*
X142150000Y-133610000D02*
X142900000Y-133610000D01*
X142150000Y-135110000D02*
X142150000Y-136910000D01*
X142150000Y-136910000D02*
X142900000Y-136910000D01*
X142900000Y-129310000D02*
X142150000Y-129310000D01*
X142900000Y-131110000D02*
X142900000Y-129310000D01*
X142900000Y-132610000D02*
X142150000Y-132610000D01*
X142900000Y-133610000D02*
X142900000Y-132610000D01*
X142900000Y-135110000D02*
X142150000Y-135110000D01*
X142900000Y-136910000D02*
X142900000Y-135110000D01*
X144400000Y-129310000D02*
X144400000Y-130060000D01*
X144400000Y-130060000D02*
X147350000Y-130060000D01*
X144400000Y-136160000D02*
X147350000Y-136160000D01*
X144400000Y-136910000D02*
X144400000Y-136160000D01*
X147350000Y-130060000D02*
X147350000Y-133110000D01*
X147350000Y-136160000D02*
X147350000Y-133110000D01*
X148110000Y-129300000D02*
X142140000Y-129300000D01*
X148110000Y-136920000D02*
X148110000Y-129300000D01*
%TO.C,J2*%
X134338490Y-161982115D02*
X134338490Y-159322115D01*
X121578490Y-161982115D02*
X134338490Y-161982115D01*
X121578490Y-161982115D02*
X121578490Y-159322115D01*
X121578490Y-159322115D02*
X134338490Y-159322115D01*
X120308490Y-161982115D02*
X118978490Y-161982115D01*
X118978490Y-161982115D02*
X118978490Y-160652115D01*
%TO.C,J3*%
X118940000Y-142280000D02*
X118940000Y-144940000D01*
X131700000Y-142280000D02*
X118940000Y-142280000D01*
X131700000Y-142280000D02*
X131700000Y-144940000D01*
X131700000Y-144940000D02*
X118940000Y-144940000D01*
X132970000Y-142280000D02*
X134300000Y-142280000D01*
X134300000Y-142280000D02*
X134300000Y-143610000D01*
%TO.C,J13*%
X101210000Y-156710000D02*
X101210000Y-157960000D01*
X101500000Y-157000000D02*
X101500000Y-162970000D01*
X101500000Y-162970000D02*
X111620000Y-162970000D01*
X101510000Y-157010000D02*
X101510000Y-157760000D01*
X101510000Y-157760000D02*
X103310000Y-157760000D01*
X101510000Y-159260000D02*
X102260000Y-159260000D01*
X102260000Y-159260000D02*
X102260000Y-162210000D01*
X102260000Y-162210000D02*
X106560000Y-162210000D01*
X102460000Y-156710000D02*
X101210000Y-156710000D01*
X103310000Y-157010000D02*
X101510000Y-157010000D01*
X103310000Y-157760000D02*
X103310000Y-157010000D01*
X104810000Y-157010000D02*
X104810000Y-157760000D01*
X104810000Y-157760000D02*
X108310000Y-157760000D01*
X108310000Y-157010000D02*
X104810000Y-157010000D01*
X108310000Y-157760000D02*
X108310000Y-157010000D01*
X109810000Y-157010000D02*
X109810000Y-157760000D01*
X109810000Y-157760000D02*
X111610000Y-157760000D01*
X110860000Y-159260000D02*
X110860000Y-162210000D01*
X110860000Y-162210000D02*
X106560000Y-162210000D01*
X111610000Y-157010000D02*
X109810000Y-157010000D01*
X111610000Y-157760000D02*
X111610000Y-157010000D01*
X111610000Y-159260000D02*
X110860000Y-159260000D01*
X111620000Y-157000000D02*
X101500000Y-157000000D01*
X111620000Y-162970000D02*
X111620000Y-157000000D01*
%TD*%
%LPC*%
D14*
%TO.C,REF\u002A\u002A*%
X68820000Y-117850000D03*
%TD*%
%TO.C,REF\u002A\u002A*%
X119370000Y-122010000D03*
%TD*%
D15*
%TO.C,J15*%
X139305000Y-93725000D03*
D16*
X134225000Y-93725000D03*
%TD*%
D17*
%TO.C,J6*%
X95830000Y-93555000D03*
D18*
X98330000Y-93555000D03*
X100830000Y-93555000D03*
%TD*%
D19*
%TO.C,D12*%
X88280000Y-139907500D03*
X88280000Y-141957500D03*
%TD*%
D20*
%TO.C,R14*%
X88120000Y-147000000D03*
X88120000Y-145000000D03*
%TD*%
D17*
%TO.C,J5*%
X79260000Y-159435000D03*
D18*
X81760000Y-159435000D03*
X84260000Y-159435000D03*
X86760000Y-159435000D03*
%TD*%
D21*
%TO.C,D6*%
X89262331Y-110681165D03*
X89262331Y-108631165D03*
%TD*%
D22*
%TO.C,J1*%
X144930000Y-148640000D03*
D23*
X144930000Y-146140000D03*
X144930000Y-143640000D03*
X144930000Y-141140000D03*
%TD*%
D24*
%TO.C,R25*%
X68000000Y-132800000D03*
X68000000Y-134800000D03*
%TD*%
D21*
%TO.C,D5*%
X85948052Y-110660491D03*
X85948052Y-108610491D03*
%TD*%
D24*
%TO.C,R7*%
X82598231Y-103165115D03*
X82598231Y-105165115D03*
%TD*%
D15*
%TO.C,BATTERY_CONN2*%
X57125000Y-98505000D03*
D16*
X57125000Y-103585000D03*
%TD*%
D25*
%TO.C,R2*%
X93000000Y-127000000D03*
X95000000Y-127000000D03*
%TD*%
D20*
%TO.C,R12*%
X84640000Y-146880000D03*
X84640000Y-144880000D03*
%TD*%
D15*
%TO.C,J9*%
X142215000Y-159075000D03*
D16*
X147295000Y-159075000D03*
%TD*%
D15*
%TO.C,BATTERY_CONN4*%
X72925000Y-94395000D03*
D16*
X67845000Y-94395000D03*
%TD*%
D19*
%TO.C,D13*%
X91510000Y-139957500D03*
X91510000Y-142007500D03*
%TD*%
D26*
%TO.C,C1*%
X134252500Y-102640000D03*
X131127500Y-102640000D03*
%TD*%
D25*
%TO.C,R23*%
X63745888Y-130337760D03*
X65745888Y-130337760D03*
%TD*%
D21*
%TO.C,D7*%
X92528150Y-110646742D03*
X92528150Y-108596742D03*
%TD*%
D20*
%TO.C,R33*%
X137290000Y-107610000D03*
X137290000Y-105610000D03*
%TD*%
D24*
%TO.C,R10*%
X92690062Y-103063223D03*
X92690062Y-105063223D03*
%TD*%
D20*
%TO.C,R15*%
X91350000Y-146980000D03*
X91350000Y-144980000D03*
%TD*%
D27*
%TO.C,U1*%
X89300000Y-115610000D03*
X86760000Y-115610000D03*
X91840000Y-115610000D03*
X96920000Y-115610000D03*
X84220000Y-115610000D03*
X109620000Y-115610000D03*
X122320000Y-115610000D03*
X84220000Y-133390000D03*
X96920000Y-133390000D03*
X109620000Y-133390000D03*
X122320000Y-133390000D03*
X79140000Y-133390000D03*
X81680000Y-133390000D03*
X86760000Y-133390000D03*
X89300000Y-133390000D03*
X91840000Y-133390000D03*
X94380000Y-133390000D03*
X99460000Y-133390000D03*
X102000000Y-133390000D03*
X104540000Y-133390000D03*
X107080000Y-133390000D03*
X112160000Y-133390000D03*
X114700000Y-133390000D03*
X117240000Y-133390000D03*
X119780000Y-133390000D03*
X124860000Y-133390000D03*
X127400000Y-133390000D03*
X127400000Y-115610000D03*
X124860000Y-115610000D03*
X119780000Y-115610000D03*
X117240000Y-115610000D03*
X114700000Y-115610000D03*
X112160000Y-115610000D03*
X107080000Y-115610000D03*
X102000000Y-115610000D03*
X99460000Y-115610000D03*
X94380000Y-115610000D03*
X104540000Y-115610000D03*
X79140000Y-115610000D03*
X81680000Y-115610000D03*
%TD*%
D25*
%TO.C,R5*%
X55270000Y-147465000D03*
X57270000Y-147465000D03*
%TD*%
D28*
%TO.C,R29*%
X71500000Y-109500000D03*
X69500000Y-109500000D03*
%TD*%
D17*
%TO.C,J11*%
X80850000Y-92505000D03*
D18*
X83350000Y-92505000D03*
X85850000Y-92505000D03*
X88350000Y-92505000D03*
%TD*%
D29*
%TO.C,Q1*%
X70500000Y-156000000D03*
D30*
X73000000Y-156000000D03*
X68000000Y-156000000D03*
%TD*%
D31*
%TO.C,JP1*%
X143890000Y-125480000D03*
D32*
X143890000Y-117880000D03*
%TD*%
D28*
%TO.C,R31*%
X139327888Y-110676019D03*
X137327888Y-110676019D03*
%TD*%
%TO.C,R19*%
X79506490Y-145031314D03*
X77506490Y-145031314D03*
%TD*%
%TO.C,R13*%
X139487500Y-101910000D03*
X137487500Y-101910000D03*
%TD*%
D33*
%TO.C,J12*%
X146500000Y-103000000D03*
D23*
X146500000Y-105500000D03*
X146500000Y-108000000D03*
X146500000Y-110500000D03*
%TD*%
D34*
%TO.C,D2*%
X55255000Y-144045000D03*
X57305000Y-144045000D03*
%TD*%
D20*
%TO.C,R1*%
X74820000Y-152080000D03*
X74820000Y-150080000D03*
%TD*%
D35*
%TO.C,F1*%
X70500000Y-148950000D03*
D36*
X70500000Y-140950000D03*
%TD*%
D17*
%TO.C,J4*%
X92890000Y-159465000D03*
D18*
X95390000Y-159465000D03*
X97890000Y-159465000D03*
%TD*%
D33*
%TO.C,J10*%
X58025000Y-130250000D03*
D23*
X58025000Y-132750000D03*
X58025000Y-135250000D03*
X58025000Y-137750000D03*
%TD*%
D24*
%TO.C,R9*%
X89390869Y-103101053D03*
X89390869Y-105101053D03*
%TD*%
D17*
%TO.C,J7*%
X108000000Y-93530000D03*
D18*
X110500000Y-93530000D03*
X113000000Y-93530000D03*
%TD*%
D24*
%TO.C,R27*%
X72000000Y-104500000D03*
X72000000Y-106500000D03*
%TD*%
D37*
%TO.C,SW2*%
X70540000Y-162000000D03*
D38*
X68000000Y-162000000D03*
X73080000Y-162000000D03*
%TD*%
D32*
%TO.C,SW1*%
X120670000Y-102820000D03*
X127170000Y-102820000D03*
X120670000Y-107320000D03*
X127170000Y-107320000D03*
%TD*%
D15*
%TO.C,BATTERY_CONN3*%
X57275000Y-110245000D03*
D16*
X57275000Y-115325000D03*
%TD*%
D39*
%TO.C,D3*%
X63325000Y-147445000D03*
X61275000Y-147445000D03*
%TD*%
D15*
%TO.C,BATTERY_CONN1*%
X58000000Y-153000000D03*
D16*
X58000000Y-158080000D03*
%TD*%
D15*
%TO.C,J8*%
X126240000Y-93760000D03*
D16*
X121160000Y-93760000D03*
%TD*%
D21*
%TO.C,D4*%
X82421234Y-110680219D03*
X82421234Y-108630219D03*
%TD*%
D28*
%TO.C,R4*%
X63280000Y-144045000D03*
X61280000Y-144045000D03*
%TD*%
D19*
%TO.C,D14*%
X94530000Y-139737500D03*
X94530000Y-141787500D03*
%TD*%
D20*
%TO.C,R16*%
X94600000Y-146970000D03*
X94600000Y-144970000D03*
%TD*%
%TO.C,R18*%
X80000000Y-150500000D03*
X80000000Y-148500000D03*
%TD*%
D24*
%TO.C,R8*%
X86038980Y-103163655D03*
X86038980Y-105163655D03*
%TD*%
D19*
%TO.C,D11*%
X84560000Y-139997500D03*
X84560000Y-142047500D03*
%TD*%
D40*
%TO.C,J14*%
X144600000Y-134360000D03*
D41*
X144600000Y-131860000D03*
%TD*%
D14*
%TO.C,REF\u002A\u002A*%
X129440000Y-152990000D03*
%TD*%
D42*
%TO.C,J2*%
X133008490Y-160652115D03*
X130468490Y-160652115D03*
X127928490Y-160652115D03*
X125388490Y-160652115D03*
X122848490Y-160652115D03*
D43*
X120308490Y-160652115D03*
%TD*%
%TO.C,J3*%
X132970000Y-143610000D03*
D42*
X130430000Y-143610000D03*
X127890000Y-143610000D03*
X125350000Y-143610000D03*
X122810000Y-143610000D03*
X120270000Y-143610000D03*
%TD*%
D17*
%TO.C,J13*%
X104060000Y-159460000D03*
D18*
X106560000Y-159460000D03*
X109060000Y-159460000D03*
%TD*%
%LPD*%
D44*
X50875000Y-87873251D02*
X150625000Y-87873251D01*
X150625000Y-166150000D01*
X50875000Y-166150000D01*
X50875000Y-87873251D01*
M02*
