%TF.GenerationSoftware,KiCad,Pcbnew,8.0.8*%
%TF.CreationDate,2025-03-28T16:36:24+05:30*%
%TF.ProjectId,MainBoard_v1.2.0,4d61696e-426f-4617-9264-5f76312e322e,rev?*%
%TF.SameCoordinates,Original*%
%TF.FileFunction,Paste,Top*%
%TF.FilePolarity,Positive*%
%FSLAX46Y46*%
G04 Gerber Fmt 4.6, Leading zero omitted, Abs format (unit mm)*
G04 Created by KiCad (PCBNEW 8.0.8) date 2025-03-28 16:36:24*
%MOMM*%
%LPD*%
G01*
G04 APERTURE LIST*
G04 Aperture macros list*
%AMRoundRect*
0 Rectangle with rounded corners*
0 $1 Rounding radius*
0 $2 $3 $4 $5 $6 $7 $8 $9 X,Y pos of 4 corners*
0 Add a 4 corners polygon primitive as box body*
4,1,4,$2,$3,$4,$5,$6,$7,$8,$9,$2,$3,0*
0 Add four circle primitives for the rounded corners*
1,1,$1+$1,$2,$3*
1,1,$1+$1,$4,$5*
1,1,$1+$1,$6,$7*
1,1,$1+$1,$8,$9*
0 Add four rect primitives between the rounded corners*
20,1,$1+$1,$2,$3,$4,$5,0*
20,1,$1+$1,$4,$5,$6,$7,0*
20,1,$1+$1,$6,$7,$8,$9,0*
20,1,$1+$1,$8,$9,$2,$3,0*%
G04 Aperture macros list end*
%ADD10RoundRect,0.250000X-0.450000X0.325000X-0.450000X-0.325000X0.450000X-0.325000X0.450000X0.325000X0*%
%ADD11RoundRect,0.250000X0.450000X-0.350000X0.450000X0.350000X-0.450000X0.350000X-0.450000X-0.350000X0*%
%ADD12RoundRect,0.250000X0.450000X-0.325000X0.450000X0.325000X-0.450000X0.325000X-0.450000X-0.325000X0*%
%ADD13RoundRect,0.250000X-0.450000X0.350000X-0.450000X-0.350000X0.450000X-0.350000X0.450000X0.350000X0*%
%ADD14RoundRect,0.250000X-0.350000X-0.450000X0.350000X-0.450000X0.350000X0.450000X-0.350000X0.450000X0*%
%ADD15RoundRect,0.250000X0.412500X1.100000X-0.412500X1.100000X-0.412500X-1.100000X0.412500X-1.100000X0*%
%ADD16RoundRect,0.250000X0.350000X0.450000X-0.350000X0.450000X-0.350000X-0.450000X0.350000X-0.450000X0*%
%ADD17RoundRect,0.250000X-0.325000X-0.450000X0.325000X-0.450000X0.325000X0.450000X-0.325000X0.450000X0*%
%ADD18RoundRect,0.250000X0.325000X0.450000X-0.325000X0.450000X-0.325000X-0.450000X0.325000X-0.450000X0*%
%TA.AperFunction,Profile*%
%ADD19C,0.050000*%
%TD*%
G04 APERTURE END LIST*
D10*
%TO.C,D12*%
X88280000Y-139907500D03*
X88280000Y-141957500D03*
%TD*%
D11*
%TO.C,R14*%
X88120000Y-147000000D03*
X88120000Y-145000000D03*
%TD*%
D12*
%TO.C,D6*%
X89262331Y-110681165D03*
X89262331Y-108631165D03*
%TD*%
D13*
%TO.C,R25*%
X68000000Y-132800000D03*
X68000000Y-134800000D03*
%TD*%
D12*
%TO.C,D5*%
X85948052Y-110660491D03*
X85948052Y-108610491D03*
%TD*%
D13*
%TO.C,R7*%
X82598231Y-103165115D03*
X82598231Y-105165115D03*
%TD*%
D14*
%TO.C,R2*%
X93000000Y-127000000D03*
X95000000Y-127000000D03*
%TD*%
D11*
%TO.C,R12*%
X84640000Y-146880000D03*
X84640000Y-144880000D03*
%TD*%
D10*
%TO.C,D13*%
X91510000Y-139957500D03*
X91510000Y-142007500D03*
%TD*%
D15*
%TO.C,C1*%
X134252500Y-102640000D03*
X131127500Y-102640000D03*
%TD*%
D14*
%TO.C,R23*%
X63745888Y-130337760D03*
X65745888Y-130337760D03*
%TD*%
D12*
%TO.C,D7*%
X92528150Y-110646742D03*
X92528150Y-108596742D03*
%TD*%
D11*
%TO.C,R33*%
X137290000Y-107610000D03*
X137290000Y-105610000D03*
%TD*%
D13*
%TO.C,R10*%
X92690062Y-103063223D03*
X92690062Y-105063223D03*
%TD*%
D11*
%TO.C,R15*%
X91350000Y-146980000D03*
X91350000Y-144980000D03*
%TD*%
D14*
%TO.C,R5*%
X55270000Y-147465000D03*
X57270000Y-147465000D03*
%TD*%
D16*
%TO.C,R29*%
X71500000Y-109500000D03*
X69500000Y-109500000D03*
%TD*%
%TO.C,R31*%
X139327888Y-110676019D03*
X137327888Y-110676019D03*
%TD*%
%TO.C,R19*%
X79506490Y-145031314D03*
X77506490Y-145031314D03*
%TD*%
%TO.C,R13*%
X139487500Y-101910000D03*
X137487500Y-101910000D03*
%TD*%
D17*
%TO.C,D2*%
X55255000Y-144045000D03*
X57305000Y-144045000D03*
%TD*%
D11*
%TO.C,R1*%
X74820000Y-152080000D03*
X74820000Y-150080000D03*
%TD*%
D13*
%TO.C,R9*%
X89390869Y-103101053D03*
X89390869Y-105101053D03*
%TD*%
%TO.C,R27*%
X72000000Y-104500000D03*
X72000000Y-106500000D03*
%TD*%
D18*
%TO.C,D3*%
X63325000Y-147445000D03*
X61275000Y-147445000D03*
%TD*%
D12*
%TO.C,D4*%
X82421234Y-110680219D03*
X82421234Y-108630219D03*
%TD*%
D16*
%TO.C,R4*%
X63280000Y-144045000D03*
X61280000Y-144045000D03*
%TD*%
D10*
%TO.C,D14*%
X94530000Y-139737500D03*
X94530000Y-141787500D03*
%TD*%
D11*
%TO.C,R16*%
X94600000Y-146970000D03*
X94600000Y-144970000D03*
%TD*%
%TO.C,R18*%
X80000000Y-150500000D03*
X80000000Y-148500000D03*
%TD*%
D13*
%TO.C,R8*%
X86038980Y-103163655D03*
X86038980Y-105163655D03*
%TD*%
D10*
%TO.C,D11*%
X84560000Y-139997500D03*
X84560000Y-142047500D03*
%TD*%
D19*
X50875000Y-87873251D02*
X150625000Y-87873251D01*
X150625000Y-166150000D01*
X50875000Y-166150000D01*
X50875000Y-87873251D01*
M02*
