M48
; DRILL file {KiCad 8.0.8} date 2025-03-28T16:36:21+0530
; FORMAT={-:-/ absolute / metric / decimal}
; #@! TF.CreationDate,2025-03-28T16:36:21+05:30
; #@! TF.GenerationSoftware,Kicad,Pcbnew,8.0.8
; #@! TF.FileFunction,Plated,1,2,PTH
FMAT,2
METRIC
; #@! TA.AperFunction,Plated,PTH,ViaDrill
T1C0.700
; #@! TA.AperFunction,Plated,PTH,ComponentDrill
T2C0.800
; #@! TA.AperFunction,Plated,PTH,ComponentDrill
T3C0.850
; #@! TA.AperFunction,Plated,PTH,ComponentDrill
T4C0.950
; #@! TA.AperFunction,Plated,PTH,ComponentDrill
T5C1.000
; #@! TA.AperFunction,Plated,PTH,ComponentDrill
T6C1.100
; #@! TA.AperFunction,Plated,PTH,ComponentDrill
T7C1.300
; #@! TA.AperFunction,Plated,PTH,ComponentDrill
T8C2.000
%
G90
G05
T1
X54.79Y-140.14
X55.14Y-149.54
X59.26Y-149.71
X59.33Y-145.78
X60.87Y-105.13
X60.91Y-97.98
X60.99Y-109.91
X61.11Y-122.87
X61.59Y-93.12
X61.8Y-161.37
X61.89Y-155.52
X63.13Y-126.39
X63.35Y-133.37
X64.24Y-140.16
X66.2Y-147.52
X68.38Y-106.04
X70.09Y-98.29
X73.17Y-126.5
X73.3Y-133.5
X73.4Y-144.88
X75.33Y-135.67
X77.46Y-107.91
X81.98Y-137.06
X82.45Y-99.12
X82.598Y-103.165
X83.79Y-151.57
X84.3Y-113.09
X84.64Y-146.88
X84.7Y-119.88
X86.039Y-103.164
X87.26Y-95.85
X88.12Y-147.0
X88.5Y-123.5
X89.391Y-103.101
X91.35Y-146.98
X91.62Y-154.96
X91.69Y-124.36
X92.3Y-96.22
X94.6Y-146.97
X95.609Y-103.04
X96.93Y-112.14
X96.93Y-130.55
X97.81Y-135.23
X99.22Y-122.71
X100.49Y-144.71
X101.9Y-105.13
X104.31Y-98.04
X108.0Y-111.2
X109.59Y-136.54
X114.43Y-121.86
X114.96Y-140.12
X118.038Y-154.842
X121.249Y-113.137
X122.61Y-131.25
X123.65Y-98.21
X124.76Y-122.05
X127.728Y-145.642
X134.738Y-154.752
X137.06Y-97.89
X141.57Y-105.1
X143.54Y-121.83
X144.62Y-155.13
X145.35Y-93.11
T2
X68.0Y-162.0
X70.54Y-162.0
X73.08Y-162.0
T3
X68.0Y-156.0
X70.5Y-156.0
X73.0Y-156.0
T4
X58.025Y-130.25
X58.025Y-132.75
X58.025Y-135.25
X58.025Y-137.75
X79.26Y-159.435
X80.85Y-92.505
X81.76Y-159.435
X83.35Y-92.505
X84.26Y-159.435
X85.85Y-92.505
X86.76Y-159.435
X88.35Y-92.505
X92.89Y-159.465
X95.39Y-159.465
X95.83Y-93.555
X97.89Y-159.465
X98.33Y-93.555
X100.83Y-93.555
X104.06Y-159.46
X106.56Y-159.46
X108.0Y-93.53
X109.06Y-159.46
X110.5Y-93.53
X113.0Y-93.53
X144.93Y-141.14
X144.93Y-143.64
X144.93Y-146.14
X144.93Y-148.64
X146.5Y-103.0
X146.5Y-105.5
X146.5Y-108.0
X146.5Y-110.5
T5
X79.14Y-115.61
X79.14Y-133.39
X81.68Y-115.61
X81.68Y-133.39
X84.22Y-115.61
X84.22Y-133.39
X86.76Y-115.61
X86.76Y-133.39
X89.3Y-115.61
X89.3Y-133.39
X91.84Y-115.61
X91.84Y-133.39
X94.38Y-115.61
X94.38Y-133.39
X96.92Y-115.61
X96.92Y-133.39
X99.46Y-115.61
X99.46Y-133.39
X102.0Y-115.61
X102.0Y-133.39
X104.54Y-115.61
X104.54Y-133.39
X107.08Y-115.61
X107.08Y-133.39
X109.62Y-115.61
X109.62Y-133.39
X112.16Y-115.61
X112.16Y-133.39
X114.7Y-115.61
X114.7Y-133.39
X117.24Y-115.61
X117.24Y-133.39
X119.78Y-115.61
X119.78Y-133.39
X120.27Y-143.61
X120.308Y-160.652
X122.32Y-115.61
X122.32Y-133.39
X122.81Y-143.61
X122.848Y-160.652
X124.86Y-115.61
X124.86Y-133.39
X125.35Y-143.61
X125.388Y-160.652
X127.4Y-115.61
X127.4Y-133.39
X127.89Y-143.61
X127.928Y-160.652
X130.43Y-143.61
X130.468Y-160.652
X132.97Y-143.61
X133.008Y-160.652
X143.89Y-117.88
X143.89Y-125.48
X144.6Y-131.86
X144.6Y-134.36
T6
X120.67Y-102.82
X120.67Y-107.32
X127.17Y-102.82
X127.17Y-107.32
T7
X57.125Y-98.505
X57.125Y-103.585
X57.275Y-110.245
X57.275Y-115.325
X58.0Y-153.0
X58.0Y-158.08
X67.845Y-94.395
X72.925Y-94.395
X121.16Y-93.76
X126.24Y-93.76
X134.225Y-93.725
X139.305Y-93.725
X142.215Y-159.075
X147.295Y-159.075
T8
G00X70.5Y-141.7
M15
G01X70.5Y-140.2
M16
G05
G00X70.5Y-149.7
M15
G01X70.5Y-148.2
M16
G05
M30
